<?xml version="1.0" encoding="UTF-8" standalone="no"?>
<!-- Created with Inkscape (http://www.inkscape.org/) -->

<svg
   width="18.147676mm"
   height="19.554701mm"
   viewBox="0 0 18.147676 19.554701"
   version="1.1"
   id="svg1"
   inkscape:export-filename="whitebox.svg"
   inkscape:export-xdpi="96"
   inkscape:export-ydpi="96"
   inkscape:version="1.3.2 (091e20e, 2023-11-25, custom)"
   sodipodi:docname="drawing.svg"
   xml:space="preserve"
   xmlns:inkscape="http://www.inkscape.org/namespaces/inkscape"
   xmlns:sodipodi="http://sodipodi.sourceforge.net/DTD/sodipodi-0.dtd"
   xmlns="http://www.w3.org/2000/svg"
   xmlns:svg="http://www.w3.org/2000/svg"><sodipodi:namedview
     id="namedview1"
     pagecolor="#ffffff"
     bordercolor="#000000"
     borderopacity="0.25"
     inkscape:showpageshadow="2"
     inkscape:pageopacity="0.0"
     inkscape:pagecheckerboard="0"
     inkscape:deskcolor="#d1d1d1"
     inkscape:document-units="mm"
     inkscape:export-bgcolor="#ffffff00"
     inkscape:zoom="0.93630668"
     inkscape:cx="919.5705"
     inkscape:cy="491.82604"
     inkscape:window-width="1920"
     inkscape:window-height="1046"
     inkscape:window-x="-11"
     inkscape:window-y="-11"
     inkscape:window-maximized="1"
     inkscape:current-layer="layer2" /><defs
     id="defs1"><inkscape:path-effect
       effect="fillet_chamfer"
       id="path-effect22-12"
       is_visible="true"
       lpeversion="1"
       nodesatellites_param="F,0,0,1,0,0.52916667,0,1 @ F,0,0,1,0,0.52916667,0,1 @ F,0,0,1,0,0.52916667,0,1 @ F,0,0,1,0,0.52916667,0,1"
       radius="2"
       unit="px"
       method="auto"
       mode="F"
       chamfer_steps="1"
       flexible="false"
       use_knot_distance="true"
       apply_no_radius="true"
       apply_with_radius="true"
       only_selected="false"
       hide_knots="false" /></defs><g
     inkscape:label="Lager 1"
     inkscape:groupmode="layer"
     id="layer1"
     transform="translate(-49.961788,-55.049595)"><path
       id="path15-9"
       style="fill:#000000;fill-opacity:1;stroke:#000000;stroke-width:0.735073;stroke-dasharray:none;stroke-opacity:1"
       inkscape:transform-center-x="4.4198362"
       inkscape:transform-center-y="-0.12405053"
       d="m 61.928313,57.268637 a 1.0415176,1.0186051 0 0 0 -0.34002,0.122358 l -6.69261,3.793882 v 7.305195 l 2.46987,1.388675 4.24917,2.389697 a 1.0415176,1.0186051 0 0 0 1.56084,-0.885569 l -0.0159,-8.320009 -0.007,-4.793193 a 1.0415176,1.0186051 0 0 0 -1.22437,-1.001023 z" /><path
       style="fill:#000000;fill-opacity:1;stroke:#000000;stroke-width:0.758239;stroke-dasharray:none;stroke-dashoffset:0;stroke-opacity:1"
       id="rect22-8"
       width="3.302676"
       height="6.7643046"
       x="110.15396"
       y="31.967079"
       sodipodi:type="rect"
       transform="matrix(0.86717038,0,0,1.083787,-44.922658,26.515906)"
       d="m 110.68313,31.967079 h 2.24434 a 0.52916667,0.52916667 45 0 1 0.52917,0.529167 v 5.705971 a 0.52916667,0.52916667 135 0 1 -0.52917,0.529167 h -2.24434 a 0.52916667,0.52916667 45 0 1 -0.52917,-0.529167 v -5.705971 a 0.52916667,0.52916667 135 0 1 0.52917,-0.529167 z"
       inkscape:path-effect="#path-effect22-12" /></g><g
     inkscape:groupmode="layer"
     id="layer2"
     inkscape:label="Lager 2"
     transform="translate(-49.961788,-55.049595)"><rect
       style="fill:#ffffff;fill-opacity:1;stroke:#000000;stroke-width:0.289321;stroke-dasharray:none;stroke-dashoffset:0;stroke-opacity:1"
       id="rect23"
       width="24.739594"
       height="1.3635906"
       x="-18.841675"
       y="86.665596"
       transform="matrix(0.67712068,-0.73587199,0.72604193,0.68765043,0,0)" /></g></svg>
